<?xml version="1.0" standalone="no"?>
<!DOCTYPE svg PUBLIC "-//W3C//DTD SVG 20010904//EN"
 "http://www.w3.org/TR/2001/REC-SVG-20010904/DTD/svg10.dtd">
<svg version="1.0" xmlns="http://www.w3.org/2000/svg"
 width="158.000000pt" height="211.000000pt" viewBox="0 0 158.000000 211.000000"
 preserveAspectRatio="xMidYMid meet">

<g transform="translate(0.000000,211.000000) scale(0.100000,-0.100000)"
fill="#000000" stroke="none">
<path d="M767 2063 l-748 -3 3 -678 3 -677 28 -80 c90 -257 314 -459 650 -586
l89 -33 66 23 c333 119 579 332 670 583 l27 73 3 693 3 692 -23 -2 c-13 -2
-359 -4 -771 -5z m771 -695 l-3 -673 -27 -73 c-37 -103 -82 -174 -163 -260
-121 -129 -255 -217 -443 -292 l-103 -41 -52 17 c-83 27 -246 106 -327 159
-100 66 -226 193 -279 282 -24 40 -55 107 -69 150 l-27 78 -3 663 -3 662 751
0 751 0 -3 -672z"/>
<path d="M90 1370 l0 -599 29 -81 c77 -210 277 -401 570 -542 l105 -51 105 53
c273 135 443 285 537 473 61 120 61 114 56 760 l-4 587 -84 0 -84 0 0 -568 c0
-494 -2 -575 -16 -615 -9 -26 -22 -47 -29 -47 -11 0 -47 13 -72 25 -2 1 6 27
17 58 19 54 20 83 20 602 l0 545 -430 0 -430 0 0 -567 c1 -441 4 -576 14 -605
l13 -36 -31 -5 c-17 -3 -40 -8 -51 -12 -17 -5 -24 1 -38 30 -15 32 -17 86 -17
569 0 293 -3 554 -6 580 l-7 46 -83 0 -84 0 0 -600z m160 13 c0 -544 1 -570
20 -612 19 -41 22 -43 53 -36 17 4 51 7 75 6 108 -3 140 -2 178 4 25 4 50 2
63 -4 17 -10 23 -8 37 14 9 14 20 23 24 20 5 -3 15 4 23 16 11 14 17 17 22 8
6 -8 12 -4 21 12 16 29 18 52 3 25 -9 -14 -13 -15 -19 -6 -6 9 -11 7 -19 -9
-7 -12 -16 -19 -21 -16 -5 3 -14 -4 -20 -15 -9 -17 -21 -20 -78 -20 -66 0 -66
0 -38 15 16 8 44 29 63 45 29 25 42 30 88 30 51 0 56 -2 78 -35 17 -25 27 -31
34 -24 8 8 13 5 18 -9 3 -12 12 -19 19 -16 7 3 18 -7 26 -21 10 -18 18 -23 29
-18 9 4 37 6 64 5 62 -3 121 -3 182 -2 28 1 68 0 90 -2 40 -3 40 -3 57 47 15
46 16 99 11 608 l-6 557 76 0 77 0 0 -578 c0 -500 -2 -586 -16 -633 -64 -218
-254 -411 -548 -561 l-122 -61 -105 51 c-278 137 -458 304 -550 512 l-24 55
-3 608 -3 607 71 0 70 0 0 -567z m562 447 c10 -30 12 -50 6 -50 -6 0 -8 -6 -5
-14 6 -16 -16 -28 -37 -20 -8 3 -16 -4 -20 -20 -7 -30 -38 -31 -79 -3 -23 15
-26 22 -15 29 9 6 6 7 -9 3 -12 -3 -24 -1 -28 5 -5 8 11 10 52 8 40 -2 57 -7
56 -15 -4 -19 12 -16 32 7 15 17 16 20 2 20 -14 0 -14 5 1 50 9 28 19 50 22
50 3 0 13 -22 22 -50z m148 -66 c0 -1 -16 -14 -35 -29 -43 -32 -78 -40 -95
-20 -13 15 -5 39 11 30 5 -4 9 1 9 10 0 13 10 16 55 14 30 -1 55 -3 55 -5z
m-153 -60 c-3 -4 -2 -15 4 -25 7 -15 6 -19 -6 -19 -8 0 -18 0 -22 -1 -15 -1
-13 19 2 35 9 9 19 16 22 16 4 0 3 -3 0 -6z m-46 -33 c-6 -10 -7 -22 -3 -26 4
-5 2 -6 -3 -2 -6 3 -17 -3 -24 -15 -7 -11 -8 -17 -2 -13 17 10 13 -6 -6 -27
-22 -25 -36 -23 -28 5 16 55 28 78 41 73 8 -3 14 1 14 9 0 8 5 15 10 15 7 0 7
-6 1 -19z m76 -2 c-4 -16 -3 -18 8 -9 16 13 27 -3 43 -63 l10 -37 -29 21 c-28
20 -43 58 -16 43 7 -4 9 -3 4 2 -5 5 -14 9 -20 9 -6 0 -13 12 -14 28 -1 15 3
27 9 27 6 0 8 -9 5 -21z m-20 -43 c15 -23 12 -44 -7 -61 -19 -17 -21 -17 -40
0 -23 21 -25 37 -8 64 12 19 43 18 55 -3z m-59 -101 c8 -17 12 -104 12 -260 0
-206 -2 -235 -15 -235 -14 0 -16 30 -13 249 2 137 0 244 -4 238 -10 -16 -20
-3 -12 17 9 23 19 20 32 -9z m100 -6 c2 -21 1 -22 -10 -8 -11 13 -12 -29 -10
-232 l3 -249 -31 0 -30 0 0 225 c0 188 2 225 14 225 8 0 20 16 26 36 13 39 33
41 38 3z m-48 2 c0 -25 -20 -38 -31 -20 -15 23 -10 39 11 39 13 0 20 -7 20
-19z m-20 -546 c0 -32 -2 -35 -30 -35 -26 0 -30 4 -30 28 0 35 6 42 37 42 20
0 23 -5 23 -35z m60 0 c0 -31 -3 -35 -25 -35 -22 0 -25 4 -25 35 0 31 3 35 25
35 22 0 25 -4 25 -35z m-12 -62 c-27 -2 -69 -2 -95 0 -27 2 -5 3 47 3 52 0 74
-1 48 -3z m57 -23 c4 -6 -32 -10 -100 -10 -68 0 -104 4 -100 10 3 6 48 10 100
10 52 0 97 -4 100 -10z m61 -63 c21 -19 48 -39 59 -45 16 -9 8 -11 -47 -12
-58 0 -69 3 -78 20 -6 11 -15 18 -20 15 -5 -3 -13 3 -19 12 -5 10 -17 18 -27
18 -9 0 -19 6 -21 13 -4 9 12 12 54 12 53 0 64 -4 99 -33z"/>
<path d="M122 1345 c2 -427 6 -597 14 -605 8 -8 14 -9 18 -1 4 6 16 11 26 11
17 0 18 3 9 24 -6 13 -18 23 -27 22 -21 -1 -27 50 -6 58 8 3 14 12 14 21 0 21
17 19 30 -5 21 -40 30 -19 30 72 0 50 -3 88 -7 84 -5 -4 -8 -13 -8 -19 0 -18
-70 -14 -70 4 0 7 -4 20 -9 27 -5 9 -1 15 13 19 12 3 21 13 21 24 0 25 20 24
27 0 3 -11 11 -22 19 -25 11 -4 14 14 14 101 0 58 -3 103 -7 99 -5 -4 -8 -13
-8 -19 0 -19 -70 -15 -70 3 0 8 -4 21 -9 28 -5 9 -1 15 13 19 12 3 21 13 21
24 0 12 5 16 15 13 8 -4 15 -12 15 -19 0 -7 7 -15 15 -19 13 -5 15 10 15 100
0 72 -3 103 -11 99 -6 -4 -8 -13 -5 -21 4 -11 -5 -14 -35 -14 -31 0 -40 3 -36
14 3 7 0 19 -6 25 -9 9 -6 13 11 17 13 4 22 14 22 25 0 25 20 24 27 0 3 -11
11 -22 19 -25 11 -4 14 14 14 105 0 71 -4 108 -10 104 -5 -3 -10 -13 -10 -21
0 -21 -65 -15 -65 6 0 8 -4 21 -8 28 -8 12 -7 14 16 16 6 0 14 12 15 26 4 24
4 24 33 -10 l28 -35 1 108 0 107 -55 0 -56 0 3 -595z m76 492 c3 -21 -1 -27
-17 -27 -23 0 -32 18 -19 43 13 25 32 16 36 -16z m2 -196 c15 -28 13 -31 -20
-31 -31 0 -39 17 -18 38 17 17 26 15 38 -7z m0 -230 c15 -28 13 -31 -20 -31
-31 0 -39 17 -18 38 17 17 26 15 38 -7z m0 -220 c16 -32 12 -41 -20 -41 -16 0
-30 5 -30 11 0 16 20 49 30 49 5 0 14 -9 20 -19z m-2 -223 c19 -19 14 -33 -13
-36 -29 -2 -41 14 -25 33 15 18 22 19 38 3z"/>
<path d="M1350 1378 c-1 -446 -4 -571 -14 -601 -13 -37 -13 -37 8 -32 32 10
68 55 62 78 -4 15 -2 17 6 9 9 -9 8 -19 -2 -39 -8 -16 -16 -31 -18 -35 -2 -5
3 -8 12 -8 8 0 18 -5 22 -11 5 -9 -1 -10 -19 -5 -16 4 -43 0 -67 -10 -27 -11
-51 -14 -73 -9 -17 4 -57 7 -87 6 -30 0 -75 -1 -100 0 -109 1 -148 0 -185 -6
-26 -4 -52 -1 -74 8 -31 13 -40 13 -77 -1 -37 -14 -49 -14 -98 -2 -47 11 -65
11 -111 0 -45 -11 -62 -11 -94 0 -24 7 -52 10 -73 5 -44 -9 -103 -10 -154 0
-23 4 -49 3 -57 -1 -20 -11 63 -16 231 -15 28 1 76 1 105 2 49 0 85 0 195 -2
26 0 67 0 92 0 25 1 69 1 98 1 28 0 76 0 105 1 28 0 72 0 97 0 25 -1 70 0 100
0 30 1 69 -2 87 -6 21 -5 47 -1 76 10 35 13 49 14 66 6 29 -16 26 -25 -5 -17
-16 4 -44 0 -71 -10 -41 -16 -48 -16 -97 -1 -49 16 -56 16 -100 1 -45 -15 -51
-15 -100 1 -47 16 -54 16 -90 1 -48 -20 -74 -20 -120 -1 -32 14 -40 14 -72 0
-46 -19 -68 -19 -123 1 -41 14 -49 14 -89 -2 -39 -14 -51 -15 -97 -4 -29 7
-66 10 -81 6 -68 -17 -86 -18 -115 -6 -29 12 -86 16 -96 7 -2 -3 8 -29 23 -59
21 -43 31 -54 45 -51 13 4 19 14 19 34 0 26 4 29 30 29 27 0 30 -3 30 -30 0
-27 3 -30 30 -30 27 0 30 3 30 30 0 27 3 30 30 30 27 0 30 -3 30 -30 0 -25 4
-30 25 -30 21 0 25 5 25 30 0 27 3 30 30 30 27 0 30 -3 30 -30 0 -27 3 -30 30
-30 27 0 30 3 30 30 0 27 3 30 30 30 27 0 30 -3 30 -30 0 -27 3 -30 30 -30 27
0 30 3 30 30 0 27 3 30 30 30 27 0 30 -3 30 -30 0 -25 4 -30 25 -30 21 0 25 5
25 30 0 27 3 30 30 30 27 0 30 -3 30 -30 0 -25 4 -30 24 -30 19 0 25 6 28 27
2 22 9 29 30 31 23 3 27 -1 30 -25 2 -22 9 -29 31 -31 24 -3 27 0 27 27 0 28
3 31 29 31 25 0 30 -4 33 -27 2 -22 9 -29 31 -31 24 -3 27 0 27 27 0 28 3 31
30 31 27 0 30 -3 30 -30 0 -25 4 -30 25 -30 21 0 25 5 25 30 0 27 3 30 30 30
26 0 30 -3 30 -29 0 -21 6 -30 21 -34 18 -5 26 5 57 71 l37 77 2 295 c1 221
-1 286 -9 260 -9 -31 -11 -33 -19 -15 -6 14 -8 8 -4 -20 2 -22 -1 -53 -9 -70
l-13 -30 -8 35 c-4 19 -14 45 -22 57 -11 16 -13 34 -8 64 10 57 29 35 28 -33
l-1 -53 13 40 c7 22 18 60 26 85 l13 45 7 -30 c3 -16 7 106 8 273 l1 302 -55
0 -55 0 0 -562z m65 363 c-5 -26 -9 -31 -16 -20 -10 17 -12 80 -2 105 11 29
26 -42 18 -85z m24 -85 c-11 -38 -16 -42 -24 -17 -3 12 -1 38 6 59 12 35 13
36 19 12 4 -14 3 -38 -1 -54z m-39 -25 c-1 -43 -2 -45 -15 -27 -8 11 -15 40
-15 65 1 43 2 45 15 27 8 -11 15 -40 15 -65z m45 -138 c-7 -41 -21 -42 -28 -3
-6 28 -5 37 9 78 10 27 26 -36 19 -75z m-52 50 c3 -15 3 -43 0 -63 -3 -23 -2
-31 5 -22 7 11 11 8 15 -10 9 -33 8 -81 -2 -96 -10 -16 -21 15 -21 59 0 15 -7
43 -15 62 -14 35 -11 97 5 97 4 0 10 -12 13 -27z m57 -390 c-1 -21 -7 -49 -15
-63 -8 -14 -15 -41 -15 -60 -1 -56 -17 -71 -26 -24 -4 21 -13 53 -21 71 -17
42 -16 55 2 23 l14 -25 1 27 c0 14 -5 28 -11 30 -6 2 -9 15 -7 28 3 20 8 13
22 -32 18 -59 32 -79 23 -32 -5 29 12 94 25 94 4 0 8 -17 8 -37z m-1 -203 c0
-14 -6 -38 -14 -55 l-13 -30 -1 45 c-1 59 9 96 20 78 5 -7 9 -24 8 -38z m-55
4 c3 -9 6 -34 6 -57 -1 -41 -1 -42 -15 -17 -16 28 -20 90 -6 90 5 0 12 -7 15
-16z"/>
<path d="M1402 1770 c0 -14 2 -19 5 -12 2 6 2 18 0 25 -3 6 -5 1 -5 -13z"/>
<path d="M1382 1650 c0 -14 2 -19 5 -12 2 6 2 18 0 25 -3 6 -5 1 -5 -13z"/>
<path d="M1375 1521 c-3 -5 -1 -12 5 -16 5 -3 10 1 10 9 0 18 -6 21 -15 7z"/>
<path d="M1402 1405 c0 -16 2 -22 5 -12 2 9 2 23 0 30 -3 6 -5 -1 -5 -18z"/>
<path d="M1427 1140 c-3 -11 -1 -20 4 -20 5 0 9 9 9 20 0 11 -2 20 -4 20 -2 0
-6 -9 -9 -20z"/>
<path d="M1402 1035 c0 -16 2 -22 5 -12 2 9 2 23 0 30 -3 6 -5 -1 -5 -18z"/>
<path d="M1432 945 c0 -16 2 -22 5 -12 2 9 2 23 0 30 -3 6 -5 -1 -5 -18z"/>
<path d="M166 1741 c-3 -5 1 -14 9 -21 13 -10 15 -9 15 9 0 21 -14 28 -24 12z"/>
<path d="M165 1501 c-7 -12 12 -24 25 -16 11 7 4 25 -10 25 -5 0 -11 -4 -15
-9z"/>
<path d="M171 1281 c-10 -7 -10 -10 -1 -16 6 -4 16 -3 22 3 13 13 -4 23 -21
13z"/>
<path d="M171 1051 c-10 -7 -10 -10 -1 -16 6 -4 16 -3 22 3 13 13 -4 23 -21
13z"/>
<path d="M174 847 c-8 -21 2 -35 16 -21 5 5 6 15 0 24 -8 12 -10 12 -16 -3z"/>
<path d="M219 823 c-1 -5 -1 -12 0 -16 1 -4 -5 -10 -13 -13 -21 -8 -9 -32 25
-49 15 -8 30 -15 33 -15 2 0 -3 22 -12 50 -15 44 -30 63 -33 43z"/>
<path d="M770 790 c-10 -23 -16 -28 -25 -20 -10 8 -15 6 -20 -10 -4 -13 -12
-19 -21 -16 -7 3 -16 0 -20 -6 -5 -7 5 -8 32 -4 22 4 55 7 74 7 19 0 52 -3 74
-7 29 -5 37 -3 31 5 -4 7 -13 10 -19 8 -7 -3 -18 4 -25 15 -10 16 -15 18 -21
8 -6 -9 -13 -4 -24 19 -9 17 -18 31 -20 31 -2 0 -9 -14 -16 -30z"/>
<path d="M240 530 c80 -113 239 -237 417 -328 67 -34 130 -62 140 -62 23 0
201 94 295 156 72 47 258 223 258 243 0 7 -180 12 -564 13 l-564 3 18 -25z
m1080 -15 c-11 -13 -79 -15 -533 -13 -406 2 -521 6 -525 16 -3 9 108 12 533
12 478 0 536 -2 525 -15z m-172 -58 c16 5 16 5 0 -12 -9 -10 -40 -26 -70 -36
-29 -9 -52 -21 -50 -25 2 -4 -10 -13 -26 -20 -34 -14 -87 -78 -77 -94 3 -6 -3
-10 -17 -10 -13 -1 -34 -7 -48 -15 -36 -21 -64 -20 -55 3 4 9 14 36 23 59 8
23 17 41 21 40 4 -1 35 13 70 32 35 19 79 35 97 36 18 1 50 13 71 27 21 14 39
22 41 17 2 -4 11 -5 20 -2z m-640 -16 c32 -22 102 -43 102 -30 0 4 15 -2 33
-14 18 -12 51 -31 73 -42 33 -16 44 -28 58 -68 10 -27 16 -51 14 -53 -8 -8
-103 31 -103 43 0 11 -41 58 -87 99 -13 12 -41 27 -63 34 -57 18 -76 30 -70
41 8 13 13 12 43 -10z"/>
</g>
</svg>
